<?xml version="1.0" standalone="no"?>
<svg xmlns="http://www.w3.org/2000/svg" viewBox="0 0 68.496 21.864" width="68.496" height="21.864"><path fill="#363535" fill-rule="nonzero" d="M0 21.67L0 1.06L5.45 1.06Q7.92 1.06 8.98 2.65Q10.03 4.25 10.03 7.32L10.03 7.32Q10.03 10.39 9.10 11.95Q8.16 13.51 5.74 13.51L5.74 13.51L4.06 13.51L4.06 21.67L0 21.67ZM4.06 9.79L4.30 9.79Q5.04 9.79 5.39 9.52Q5.74 9.24 5.84 8.72Q5.95 8.21 5.95 7.25L5.95 7.25Q5.95 5.95 5.66 5.38Q5.38 4.80 4.51 4.80L4.51 4.80L4.06 4.80L4.06 9.79ZM14.45 21.86Q12.41 21.86 11.65 20.51Q10.90 19.15 10.90 16.63L10.90 16.63Q10.90 14.57 11.44 13.46Q11.98 12.36 12.94 11.84Q13.90 11.33 15.86 10.70L15.86 10.70L17.02 10.32L17.02 10.27L17.02 8.52Q17.02 7.82 16.74 7.45Q16.46 7.08 16.08 7.08L16.08 7.08Q15.74 7.08 15.49 7.39Q15.24 7.70 15.24 8.23L15.24 8.23L15.24 9.29L11.16 9.29L11.16 8.71Q11.16 6.12 12.37 5.02Q13.58 3.91 16.32 3.91L16.32 3.91Q18.50 3.91 19.87 5.05Q21.24 6.19 21.24 8.28L21.24 8.28L21.24 21.67L17.06 21.67L17.06 19.58Q16.75 20.66 16.07 21.26Q15.38 21.86 14.45 21.86L14.45 21.86ZM16.10 18.60Q16.58 18.60 16.79 18.20Q16.99 17.81 16.99 17.23L16.99 17.23L16.99 12.34Q16.06 12.70 15.61 13.25Q15.17 13.80 15.17 14.78L15.17 14.78L15.17 17.04Q15.17 18.60 16.10 18.60L16.10 18.60ZM27.12 21.67L22.85 21.67L22.85 0.94L27.12 0.94L27.12 21.67ZM31.99 21.86Q29.95 21.86 29.20 20.51Q28.44 19.15 28.44 16.63L28.44 16.63Q28.44 14.57 28.98 13.46Q29.52 12.36 30.48 11.84Q31.44 11.33 33.41 10.70L33.41 10.70L34.56 10.32L34.56 10.27L34.56 8.52Q34.56 7.82 34.28 7.45Q34.01 7.08 33.62 7.08L33.62 7.08Q33.29 7.08 33.04 7.39Q32.78 7.70 32.78 8.23L32.78 8.23L32.78 9.29L28.70 9.29L28.70 8.71Q28.70 6.12 29.92 5.02Q31.13 3.91 33.86 3.91L33.86 3.91Q36.05 3.91 37.42 5.05Q38.78 6.19 38.78 8.28L38.78 8.28L38.78 21.67L34.61 21.67L34.61 19.58Q34.30 20.66 33.61 21.26Q32.93 21.86 31.99 21.86L31.99 21.86ZM33.65 18.60Q34.13 18.60 34.33 18.20Q34.54 17.81 34.54 17.23L34.54 17.23L34.54 12.34Q33.60 12.70 33.16 13.25Q32.71 13.80 32.71 14.78L32.71 14.78L32.71 17.04Q32.71 18.60 33.65 18.60L33.65 18.60ZM43.85 21.86Q42.31 21.86 41.53 21.13Q40.75 20.40 40.50 19.19Q40.25 17.98 40.25 16.08L40.25 16.08L40.30 8.16Q40.30 6.29 41.24 5.10Q42.19 3.91 43.92 3.91L43.92 3.91Q45.62 3.91 46.46 5.04L46.46 5.04L46.46 0.94L50.66 0.94L50.66 21.67L46.46 21.67L46.46 19.80Q46.10 20.83 45.49 21.35Q44.88 21.86 43.85 21.86L43.85 21.86ZM45.46 18.58Q46.08 18.58 46.27 17.96Q46.46 17.35 46.46 16.32L46.46 16.32L46.46 15.58L46.46 8.98Q46.46 8.21 46.25 7.68Q46.03 7.15 45.48 7.15L45.48 7.15Q44.86 7.15 44.65 7.64Q44.45 8.14 44.45 8.98L44.45 8.98L44.45 16.37Q44.45 18.58 45.46 18.58L45.46 18.58ZM56.52 2.93L52.32 2.93L52.32 0L56.52 0L56.52 2.93ZM56.52 21.67L52.32 21.67L52.32 4.10L56.52 4.10L56.52 21.67ZM58.18 21.67L58.18 4.10L62.38 4.10L62.38 6.34Q62.64 5.26 63.29 4.58Q63.94 3.91 65.02 3.91L65.02 3.91Q66.79 3.91 67.64 5.00Q68.50 6.10 68.50 8.11L68.50 8.11L68.50 21.67L64.37 21.67L64.37 8.54Q64.37 7.97 64.14 7.56Q63.91 7.15 63.43 7.15L63.43 7.15Q62.78 7.15 62.58 7.74Q62.38 8.33 62.38 9.31L62.38 9.31L62.38 21.67L58.18 21.67Z"></path></svg>