<?xml version="1.0" standalone="no"?>
<svg xmlns="http://www.w3.org/2000/svg" viewBox="0 0 125.044 29" width="125.044" height="29"><g fill="#3a72e0" color="#3a72e0" transform="translate(0, 0) scale(0.5686275)"><svg width="44.0" height="51.0" x="0.0" y="0.0" viewBox="0 0 44 51"><path fill="currentColor" fill-rule="evenodd" d="M21.998 0L0 12.571v25.143l4.19 2.395V15.002L21.999 4.827 39.81 15.002v20.28L21.998 45.459l-9.427-5.388V19.865l9.427-5.386 9.43 5.386v10.553l-9.43 5.387-1.045-.597V24.73l5.268-3.012-4.223-2.413-5.236 2.994v15.34l5.236 2.993 13.62-7.784V17.435l-13.62-7.781-13.617 7.78v25.068l13.617 7.784L44 37.714V12.571z"></path></svg></g><line x1="37.02" y1="1" x2="37.02" y2="28" stroke="#e7ecec" stroke-linecap="round"></line><path fill="#e7ecec" fill-rule="nonzero" d="M0 20.74L0 0.12L5.69 0.12Q7.90 0.12 9 1.34Q10.10 2.57 10.13 4.97L10.13 4.97L10.18 14.62Q10.20 17.66 9.12 19.20Q8.04 20.74 5.54 20.74L5.54 20.74L0 20.74ZM4.15 17.09L4.87 17.09Q6 17.09 6 15.98L6 15.98L6 5.35Q6 4.66 5.89 4.31Q5.78 3.96 5.50 3.84Q5.21 3.72 4.61 3.72L4.61 3.72L4.15 3.72L4.15 17.09ZM16.68 20.93Q13.97 20.93 12.79 19.44Q11.62 17.95 11.62 15L11.62 15L11.62 7.94Q11.62 5.52 13.01 4.25Q14.40 2.98 16.90 2.98L16.90 2.98Q21.96 2.98 21.96 7.94L21.96 7.94L21.96 9.22Q21.96 11.14 21.91 12.34L21.91 12.34L15.82 12.34L15.82 15.74Q15.82 16.66 16.01 17.17Q16.20 17.69 16.82 17.69L16.82 17.69Q17.30 17.69 17.51 17.40Q17.71 17.11 17.75 16.74Q17.78 16.37 17.78 15.65L17.78 15.65L17.78 13.94L21.96 13.94L21.96 14.95Q21.96 18.02 20.77 19.48Q19.58 20.93 16.68 20.93L16.68 20.93ZM15.79 10.25L17.78 10.25L17.78 7.99Q17.78 6.10 16.85 6.10L16.85 6.10Q15.79 6.10 15.79 7.99L15.79 7.99L15.79 10.25ZM30.58 20.74L25.70 20.74L22.90 3.17L27.10 3.17L27.96 12.05L28.10 14.90L28.27 12.02L29.23 3.17L33.43 3.17L30.58 20.74ZM40.51 20.74L36.38 20.74L36.38 4.08L33.94 4.08L33.94 0.12L42.96 0.12L42.96 4.08L40.51 4.08L40.51 20.74ZM48.96 20.93Q46.25 20.93 45.07 19.44Q43.90 17.95 43.90 15L43.90 15L43.90 7.94Q43.90 5.52 45.29 4.25Q46.68 2.98 49.18 2.98L49.18 2.98Q54.24 2.98 54.24 7.94L54.24 7.94L54.24 9.22Q54.24 11.14 54.19 12.34L54.19 12.34L48.10 12.34L48.10 15.74Q48.10 16.66 48.29 17.17Q48.48 17.69 49.10 17.69L49.10 17.69Q49.58 17.69 49.79 17.40Q49.99 17.11 50.03 16.74Q50.06 16.37 50.06 15.65L50.06 15.65L50.06 13.94L54.24 13.94L54.24 14.95Q54.24 18.02 53.05 19.48Q51.86 20.93 48.96 20.93L48.96 20.93ZM48.07 10.25L50.06 10.25L50.06 7.99Q50.06 6.10 49.13 6.10L49.13 6.10Q48.07 6.10 48.07 7.99L48.07 7.99L48.07 10.25ZM61.03 20.93Q58.15 20.93 56.88 19.46Q55.61 18 55.61 14.98L55.61 14.98L55.61 9.55Q55.61 7.27 56.10 5.84Q56.59 4.42 57.76 3.70Q58.92 2.98 60.98 2.98L60.98 2.98Q63.24 2.98 64.66 4.15Q66.07 5.33 66.07 7.44L66.07 7.44L66.07 10.13L61.80 10.13L61.80 7.66Q61.80 6.96 61.61 6.59Q61.42 6.22 60.86 6.22L60.86 6.22Q59.83 6.22 59.83 7.68L59.83 7.68L59.83 16.20Q59.83 16.80 60.08 17.22Q60.34 17.64 60.84 17.64L60.84 17.64Q61.34 17.64 61.60 17.23Q61.85 16.82 61.82 16.18L61.82 16.18L61.80 13.22L66.07 13.22L66.07 16.30Q66.07 18.46 64.67 19.69Q63.26 20.93 61.03 20.93L61.03 20.93ZM67.54 20.74L67.54 0L71.86 0L71.86 4.90Q72.53 2.98 74.42 2.98L74.42 2.98Q76.20 2.98 77.11 4.10Q78.02 5.23 78.02 7.20L78.02 7.20L78.02 20.74L73.82 20.74L73.82 7.46Q73.82 6.89 73.56 6.53Q73.30 6.17 72.79 6.17L72.79 6.17Q72.36 6.17 72.11 6.54Q71.86 6.91 71.86 7.44L71.86 7.44L71.86 20.74L67.54 20.74Z" transform="translate(47.02, 4.132)"></path></svg>